<svg width="23" height="23" viewBox="0 0 23 23" fill="none" xmlns="http://www.w3.org/2000/svg">
<path d="M11.5494 1.93971C6.43008 1.93971 2.28006 6.09419 2.28006 11.219C2.28006 13.6297 3.19834 15.8257 4.39133 17.1517C4.43808 17.1853 3.79447 20.4059 3.79447 20.4059L7.10364 19.3402C8.66217 20.149 10.065 20.4983 11.5494 20.4983C16.6687 20.4983 20.8187 16.3438 20.8187 11.219C20.8187 6.09419 16.6687 1.93971 11.5494 1.93971ZM11.5494 0.252563C14.4755 0.252563 17.2264 1.39328 19.2955 3.46456C21.3646 5.53585 22.5041 8.28976 22.5041 11.219C22.5041 14.1482 21.3646 16.9022 19.2955 18.9734C17.2264 21.0447 14.4755 22.1854 11.5494 22.1854C9.97799 22.1854 8.50803 21.8558 6.97469 21.1541L1.57901 22.8916L2.14189 20.0749C2.31178 19.2247 2.49952 18.2546 2.61299 17.6335C1.33877 15.8998 0.594727 13.5637 0.594727 11.219C0.594727 8.28976 1.73421 5.53585 3.80327 3.46456C5.87234 1.39328 8.6233 0.252563 11.5494 0.252563Z" fill="white"/>
<path d="M6.87774 12.5476C7.61073 12.5476 8.20494 11.9528 8.20494 11.219C8.20494 10.4852 7.61073 9.89038 6.87774 9.89038C6.14475 9.89038 5.55054 10.4852 5.55054 11.219C5.55054 11.9528 6.14475 12.5476 6.87774 12.5476Z" fill="white"/>
<path d="M11.5494 12.5476C12.2824 12.5476 12.8766 11.9528 12.8766 11.219C12.8766 10.4852 12.2824 9.89038 11.5494 9.89038C10.8164 9.89038 10.2222 10.4852 10.2222 11.219C10.2222 11.9528 10.8164 12.5476 11.5494 12.5476Z" fill="white"/>
<path d="M16.2212 12.5476C16.9542 12.5476 17.5484 11.9528 17.5484 11.219C17.5484 10.4852 16.9542 9.89038 16.2212 9.89038C15.4883 9.89038 14.894 10.4852 14.894 11.219C14.894 11.9528 15.4883 12.5476 16.2212 12.5476Z" fill="white"/>
</svg>
