<svg width="35" height="37" viewBox="0 0 23 24" fill="none" xmlns="http://www.w3.org/2000/svg">
<path opacity="0.998" d="M19.2111 7.21064C20.0973 7.73186 20.8321 8.47585 21.3427 9.3689C21.8532 10.262 22.1218 11.2731 22.1218 12.302C22.1218 13.331 21.8532 14.3421 21.3427 15.2351C20.8321 16.1282 20.0973 16.8722 19.2111 17.3934L9.63419 23.0251C8.73818 23.5521 7.71901 23.8328 6.67982 23.8387C5.64063 23.8447 4.61831 23.5757 3.71635 23.059C2.81438 22.5423 2.06479 21.7962 1.54344 20.8962C1.02209 19.9963 0.747486 18.9745 0.747429 17.9341V6.66907C0.748081 5.62903 1.02311 4.60761 1.54471 3.70815C2.0663 2.80868 2.81595 2.06308 3.71781 1.54677C4.61967 1.03047 5.64176 0.761768 6.68066 0.767863C7.71956 0.773958 8.73843 1.05463 9.63419 1.58148L19.2111 7.21064Z" fill="url(#paint0_radial_1_1167)"/>
<path d="M17.1161 9.34992C17.643 9.64173 18.0821 10.0695 18.3879 10.5887C18.6937 11.1079 18.855 11.6997 18.855 12.3024C18.855 12.9052 18.6937 13.4969 18.3879 14.0161C18.0821 14.5354 17.643 14.9631 17.1161 15.2549L8.46195 20.0506C7.94878 20.335 7.37038 20.4803 6.7839 20.4723C6.19743 20.4644 5.62319 20.3033 5.11793 20.0051C4.61267 19.707 4.19387 19.282 3.90294 18.7721C3.612 18.2623 3.45899 17.6853 3.45904 17.0981V7.50587C3.45899 6.91872 3.612 6.34171 3.90294 5.83188C4.19387 5.32205 4.61267 4.89704 5.11793 4.59886C5.62319 4.30068 6.19743 4.13964 6.7839 4.13166C7.37038 4.12368 7.94878 4.26904 8.46195 4.55337L17.1161 9.34992Z" fill="white"/>
<defs>
<radialGradient id="paint0_radial_1_1167" cx="0" cy="0" r="1" gradientUnits="userSpaceOnUse" gradientTransform="translate(3.39179 12.3033) rotate(90) scale(11.5355 13.8399)">
<stop stop-color="#6F3BD1"/>
<stop offset="1" stop-color="#1E102F"/>
</radialGradient>
</defs>
</svg>
